# xmcd CD database file
#
# Track frame offsets:
#	150
#	15206
#	27195
#	40818
#	63649
#	77689
#	88687
#	100475
#	115912
#	127622
#	140610
#	149473
#	163750
#	181836
#	194934
#	210830
#	222591
#	236865
#	251071
#	264946
#
# Disc length: 3657 seconds
#
# Revision: 1
# Processed by: cddbd v1.5.2PL0 Copyright (c) Steve Scherf et al.
# Submitted via: CDex 1.70beta2
#
DISCID=1f0e4714
DTITLE=White Christmas - White Christmas
DYEAR=1900
DGENRE=Jazz
TTITLE0=Ella Fitzgerald - It Came Upon the Midnight Clear
TTITLE1=The Drifters - White Christmas
TTITLE2=Harry Delafonte - Mary's Boy Child
TTITLE3=Mahalia Jackson - Silent Night, Holy Night
TTITLE4=Petula Clark and Rod McKuen - Baby It's Cold Outside
TTITLE5=The Platters - Please Come Home For Christmas
TTITLE6=Dinah Shore and Jud Conlon's Rhytmaires - The Merry Christmas Polka
TTITLE7=Glenn Miller Orchestra and Tex Beneke - Jingle Bells
TTITLE8=Barry Gordon - Nuttin' for Christmas
TTITLE9=Gene Autry - Rudolph, the red-nosed Reindeer
TTITLE10=Dean Martin - Let It Snow Let It Snow
TTITLE11=Merv Griffin and The Martin Men - Sleigh Ride
TTITLE12=Perry Como - The Twelve Days of Christmas
TTITLE13=Louis Armstrong - Christmas in New Orleans
TTITLE14=Johnny Cash - O Christmas Tree
TTITLE15=Mario Lanza - Ave Maria
TTITLE16=Bing Crosby - Adeste Fidelis
TTITLE17=Billie Holiday and Gordon Jenkins Orchestra - God Bless The Child
TTITLE18=Frank Sinatra - O Little own of Bethlehem
TTITLE19=J.Mercer,R.Clooney,B.Crosby - We Wish You A Merry Christmas
EXTD=
EXTT0=
EXTT1=
EXTT2=
EXTT3=
EXTT4=
EXTT5=
EXTT6=
EXTT7=
EXTT8=
EXTT9=
EXTT10=
EXTT11=
EXTT12=
EXTT13=
EXTT14=
EXTT15=
EXTT16=
EXTT17=
EXTT18=
EXTT19=
PLAYORDER=
